IKResults
version=1
nRows=9
nColumns=63
inDegrees=yes

Units are S.I. units (second, meters, Newtons, ...)
If the header above contains a line with 'inDegrees', this indicates whether rotational values are in degrees (yes) or radians (no).

endheader
time	pelvis_tilt	pelvis_list	pelvis_rotation	pelvis_tx	pelvis_ty	pelvis_tz	hip_flexion_r	hip_adduction_r	hip_rotation_r	knee_angle_r	knee_angle_r_beta	ankle_angle_r	subtalar_angle_r	mtp_angle_r	hip_flexion_l	hip_adduction_l	hip_rotation_l	knee_angle_l	knee_angle_l_beta	ankle_angle_l	subtalar_angle_l	mtp_angle_l	L5_S1_Flex_Ext	L5_S1_Lat_Bending	L5_S1_axial_rotation	L4_L5_Flex_Ext	L4_L5_Lat_Bending	L4_L5_axial_rotation	L3_L4_Flex_Ext	L3_L4_Lat_Bending	L3_L4_axial_rotation	L2_L3_Flex_Ext	L2_L3_Lat_Bending	L2_L3_axial_rotation	L1_L2_Flex_Ext	L1_L2_Lat_Bending	L1_L2_axial_rotation	L1_T12_Flex_Ext	L1_T12_Lat_Bending	L1_T12_axial_rotation	Abs_r3	Abs_r2	Abs_r1	Abs_t1	Abs_t2	neck_flexion	neck_bending	neck_rotation	arm_flex_r	arm_add_r	arm_rot_r	elbow_flex_r	pro_sup_r	wrist_flex_r	wrist_dev_r	arm_flex_l	arm_add_l	arm_rot_l	elbow_flex_l	pro_sup_l	wrist_flex_l	wrist_dev_l
      4.03333333	     66.87037353	     -6.57714996	    -11.57425752	     -0.87019775	      0.31685211	     -0.47399209	     39.11270645	    -14.21571538	      9.48977945	     47.93034739	      0.83654237	    -24.76448703	    -17.37954667	      0.00000000	     33.60736204	    -22.07070269	    -10.26285473	     52.18461031	      0.91079327	    -24.98524793	    -19.21914871	      0.00000000	      2.22803919	      0.42631525	      0.31832279	      4.13769158	      0.56699928	      0.33821797	      3.66044559	      1.03654290	      0.33821797	      2.54642599	      1.03654290	      0.27853244	      2.06895719	      0.86934206	      0.25863727	      1.27310159	      0.66036232	      0.23874209	     15.91466114	      4.82256338	      1.77041588	      0.00000000	      0.00000000	    -20.12298699	      6.09153840	     -9.76767211	    -28.51536733	    -48.61752242	    -46.85844624	     59.23105260	     89.99559364	      0.00000000	      0.00000000	    -45.39548769	    -35.33704840	    -61.79156625	     66.42653267	     89.99559364	      0.00000000	      0.00000000
      4.06666667	     65.94199751	     -6.27161355	    -11.93007458	     -0.86673573	      0.31561179	     -0.47318963	     40.98755385	    -14.07973611	     10.00797005	     49.37185294	      0.86170139	    -24.34145782	    -17.60473449	      0.00000000	     35.39193122	    -21.92978433	     -9.70289138	     53.86874682	      0.94018700	    -24.03291044	    -19.22392144	      0.00000000	      2.13844904	      0.41984984	      0.29700008	      3.97131371	      0.55840029	      0.31556259	      3.51325792	      1.02082290	      0.31556259	      2.44403340	      1.02082290	      0.25987507	      1.98576378	      0.85615779	      0.24131257	      1.22190978	      0.65034740	      0.22275006	     15.27472763	      4.74942536	      1.65182536	      0.00000000	      0.00000000	    -22.85427551	      6.22876736	     -9.22907905	    -26.49425758	    -47.72210367	    -42.61818362	     60.37774581	     89.99559364	      0.00000000	      0.00000000	    -42.82383274	    -34.79858774	    -57.16765843	     66.93072716	     89.99559364	      0.00000000	      0.00000000
      4.10000000	     64.90610803	     -6.23153662	    -12.15102480	     -0.86312090	      0.31391506	     -0.47277408	     42.83415845	    -13.82464787	     10.11627180	     50.77304673	      0.88615684	    -24.10454662	    -17.78907189	      0.00000000	     37.47385928	    -21.95005272	     -8.82228371	     55.66269385	      0.97149728	    -23.24942861	    -19.21793748	      0.00000000	      2.02375505	      0.44561275	      0.13777973	      3.75831551	      0.59266496	      0.14639097	      3.32482718	      1.08346284	      0.14639097	      2.31294965	      1.08346284	      0.12055727	      1.87925894	      0.90869352	      0.11194603	      1.15637364	      0.69025415	      0.10333480	     14.45547997	      5.04086053	      0.76628954	      0.00000000	      0.00000000	    -25.60039071	      6.06134164	     -8.25006824	    -23.44141183	    -47.46320932	    -37.05788799	     60.77546529	     89.99559364	      0.00000000	      0.00000000	    -40.67807250	    -33.57764081	    -53.28381825	     67.36896044	     89.99559364	      0.00000000	      0.00000000
      4.13333333	     98.52044007	    -11.39886654	     -6.62034029	     -0.91493823	      0.28515569	     -0.48638807	      8.63399973	    -14.17674430	     10.08201701	     49.49049568	      0.86377210	    -25.84021208	    -18.20416654	      0.00000000	      3.45680109	    -20.69467893	     -8.30956801	     54.30786231	      0.94785101	    -24.77776538	    -19.26051594	      0.00000000	     -5.07358312	      0.31541301	     -0.44094906	     -9.42215122	      0.41949930	     -0.46850837	     -8.33538971	      0.76689519	     -0.46850837	     -5.79859815	      0.76689519	     -0.38583043	     -4.71132929	      0.64319021	     -0.35827111	     -2.89904540	      0.48857475	     -0.33071179	    -36.24009689	      3.56801505	     -2.45242638	      0.00000000	      0.00000000	     -8.52564866	      6.25737714	     -7.74280954	      3.82930375	    -48.58643503	    -22.92391048	     57.51291787	     89.99559364	      0.00000000	      0.00000000	    -24.70668830	    -34.36617202	    -50.74845137	     69.36970759	     89.99559364	      0.00000000	      0.00000000
      4.16666667	    100.47240261	    -11.88730242	     -6.20001017	     -0.91824693	      0.28269993	     -0.48789106	      6.90807282	    -13.86341894	     10.00488141	     49.86937365	      0.87038477	    -26.39943906	    -18.35234790	      0.00000000	      2.02047030	    -20.57248870	     -7.58247130	     55.05136881	      0.96082764	    -24.81216076	    -19.26271081	      0.00000000	     -5.80177075	      0.32541169	     -0.56442963	    -10.77446845	      0.43279755	     -0.59970648	     -9.53172916	      0.79120599	     -0.59970648	     -6.63084379	      0.79120599	     -0.49387593	     -5.38752432	      0.66357952	     -0.45859908	     -3.31513180	      0.50406271	     -0.42332222	    -41.44146827	      3.68112214	     -3.13918828	      0.00000000	      0.00000000	     -9.44610153	      5.87814036	     -6.85163890	      7.83990117	    -47.81187394	    -18.02724214	     57.62960100	     89.99559364	      0.00000000	      0.00000000	    -21.39356925	    -34.27905973	    -46.23635718	     69.35474340	     89.99559364	      0.00000000	      0.00000000
      4.20000000	    102.07721259	    -12.23578772	     -5.77028968	     -0.92127158	      0.28062454	     -0.48936194	      5.53883274	    -13.65793979	      9.84144259	     50.28693172	      0.87767253	    -26.96300481	    -18.47719898	      0.00000000	      0.98069931	    -20.31612999	     -6.73036554	     55.72124464	      0.97251918	    -25.00420370	    -19.26578850	      0.00000000	     -6.48467591	      0.32184531	     -0.71304494	    -12.04269163	      0.42805426	     -0.75761025	    -10.65367405	      0.78253468	     -0.75761025	     -7.41133610	      0.78253468	     -0.62391432	     -6.02167005	      0.65630695	     -0.57934901	     -3.70534381	      0.49853838	     -0.53478370	    -46.31939155	      3.64077850	     -3.96574204	      0.00000000	      0.00000000	    -10.31473690	      5.44235750	     -5.82044156	     11.74297161	    -46.91385285	    -13.23696327	     57.48275583	     89.99559364	      0.00000000	      0.00000000	    -18.40643670	    -34.35562264	    -41.88378698	     69.19049748	     89.99559364	      0.00000000	      0.00000000
      4.23333333	    102.35437251	    -12.35687069	     -5.76970574	     -0.92269126	      0.27924604	     -0.48974691	      5.75653876	    -13.44284882	     10.02347515	     51.03862763	      0.89079210	    -27.57087534	    -18.58817933	      0.00000000	      1.33664930	    -20.02575060	     -6.01900054	     56.45847703	      0.98538631	    -25.37197186	    -19.26189021	      0.00000000	     -6.94556834	      0.29677709	     -0.78851151	    -12.89861497	      0.39471353	     -0.83779348	    -11.41087423	      0.72158382	     -0.83779348	     -7.93809006	      0.72158382	     -0.68994757	     -6.44965476	      0.60518784	     -0.64066560	     -3.96869775	      0.45970771	     -0.59138363	    -49.61150011	      3.35720180	     -4.38546446	      0.00000000	      0.00000000	    -11.80589924	      5.31001351	     -5.26448131	     14.62356785	    -45.10086620	    -10.77781647	     56.81852221	     89.99559364	      0.00000000	      0.00000000	    -15.49593099	    -34.64314847	    -37.38590082	     68.60415722	     89.99559364	      0.00000000	      0.00000000
      4.26666667	    103.27154728	    -12.51885108	     -5.47923625	     -0.92548215	      0.27786477	     -0.49095938	      5.10841228	    -13.37201994	      9.79482370	     51.42992475	      0.89762152	    -28.28198179	    -18.71437132	      0.00000000	      0.99791431	    -19.69474221	     -5.28130349	     56.90843149	      0.99323950	    -26.01184195	    -19.27773215	      0.00000000	     -7.53947574	      0.27499375	     -0.92053558	    -14.00156039	      0.36574168	     -0.97806906	    -12.38660469	      0.66861979	     -0.97806906	     -8.61686682	      0.66861979	     -0.80546864	     -7.00115717	      0.56076724	     -0.74793516	     -4.30805644	      0.42596531	     -0.69040169	    -53.85372125	      3.11078424	     -5.11974276	      0.00000000	      0.00000000	    -12.59292284	      4.86802976	     -4.36784574	     17.96576745	    -43.73207379	     -7.32479460	     55.95902424	     89.99559364	      0.00000000	      0.00000000	    -12.80634868	    -35.23656690	    -32.77851775	     68.01563853	     89.99559364	      0.00000000	      0.00000000
      4.30000000	    105.13063670	    -13.03379049	     -4.26634943	     -0.92960959	      0.27671649	     -0.49370567	      3.00925911	    -13.10951441	      8.65501104	     51.40542704	      0.89719396	    -29.06337273	    -18.80891260	      0.00000000	     -0.08545650	    -19.65451751	     -3.80770856	     57.24299352	      0.99907871	    -26.60302114	    -19.28840895	      0.00000000	     -8.32032847	      0.27664075	     -1.35702418	    -15.45168199	      0.36793219	     -1.44183819	    -13.66946764	      0.67262431	     -1.44183819	     -9.50930340	      0.67262431	     -1.18739616	     -7.72625701	      0.56412581	     -1.10258215	     -4.75423569	      0.42851652	     -1.01776814	    -59.43127420	      3.12941546	     -7.54736140	      0.00000000	      0.00000000	    -12.26034566	      3.84475298	     -2.21520338	     24.05304364	    -42.86197716	      0.72148122	     53.80447033	     89.99559364	      0.00000000	      0.00000000	    -11.95374390	    -34.96337510	    -31.40510658	     68.84347208	     89.99559364	      0.00000000	      0.00000000
